<?xml version="1.0" encoding="UTF-8" standalone="no"?>
<svg
   xmlns:dc="http://purl.org/dc/elements/1.1/"
   xmlns:cc="http://creativecommons.org/ns#"
   xmlns:rdf="http://www.w3.org/1999/02/22-rdf-syntax-ns#"
   xmlns:svg="http://www.w3.org/2000/svg"
   xmlns="http://www.w3.org/2000/svg"
   xmlns:sodipodi="http://sodipodi.sourceforge.net/DTD/sodipodi-0.dtd"
   xmlns:inkscape="http://www.inkscape.org/namespaces/inkscape"
   width="210mm"
   height="297mm"
   viewBox="0 0 210 297"
   version="1.1"
   id="svg4234"
   inkscape:version="1.0.2 (e86c870879, 2021-01-15)"
   sodipodi:docname="drawing-laser.svg">
  <defs
     id="defs4228" />
  <sodipodi:namedview
     id="base"
     pagecolor="#ffffff"
     bordercolor="#666666"
     borderopacity="1.0"
     inkscape:pageopacity="0.0"
     inkscape:pageshadow="2"
     inkscape:zoom="0.35"
     inkscape:cx="-268.86477"
     inkscape:cy="693.69478"
     inkscape:document-units="mm"
     inkscape:current-layer="layer1"
     inkscape:document-rotation="0"
     showgrid="false"
     inkscape:window-width="1920"
     inkscape:window-height="1136"
     inkscape:window-x="0"
     inkscape:window-y="27"
     inkscape:window-maximized="1" />
  <metadata
     id="metadata4231">
    <rdf:RDF>
      <cc:Work
         rdf:about="">
        <dc:format>image/svg+xml</dc:format>
        <dc:type
           rdf:resource="http://purl.org/dc/dcmitype/StillImage" />
        <dc:title></dc:title>
      </cc:Work>
    </rdf:RDF>
  </metadata>
  <g
     inkscape:label="Layer 1"
     inkscape:groupmode="layer"
     id="layer1">
    <ellipse
       style="fill:none;stroke:#0000ff;stroke-width:0.3;stroke-linecap:square;paint-order:fill markers stroke;stroke-miterlimit:4;stroke-dasharray:none;stroke-opacity:1"
       id="path1036"
       cx="87.323563"
       cy="260.10507"
       rx="13.5"
       ry="7.5" />
    <path
       style="fill:none;fill-opacity:1;stroke:#0000ff;stroke-width:0.3;stroke-miterlimit:4;stroke-dasharray:none;stroke-opacity:1"
       d="M 91.68132,58.681805 V 80.365753 H 66.68129 v 75.000067 h 69.99986 V 80.365753 H 111.68113 V 58.681805 Z"
       id="rect4487"
       inkscape:connector-curvature="0" />
    <ellipse
       style="fill:none;stroke:#0000ff;stroke-width:0.3;stroke-linecap:square;paint-order:fill markers stroke;stroke-miterlimit:4;stroke-dasharray:none;stroke-opacity:1"
       id="path1036-6"
       cx="125.89516"
       cy="259.3916"
       rx="13.5"
       ry="7.5" />
    <ellipse
       style="fill:none;stroke:#0000ff;stroke-width:0.3;stroke-linecap:square;paint-order:fill markers stroke;stroke-miterlimit:4;stroke-dasharray:none;stroke-opacity:1"
       id="path1036-2"
       cx="88.244217"
       cy="242.27901"
       rx="12.5"
       ry="6.5" />
    <ellipse
       style="fill:none;stroke:#0000ff;stroke-width:0.3;stroke-linecap:square;paint-order:fill markers stroke;stroke-miterlimit:4;stroke-dasharray:none;stroke-opacity:1"
       id="path1036-2-9"
       cx="124.64705"
       cy="241.76123"
       rx="12.5"
       ry="6.5" />
    <path
       style="fill:none;fill-opacity:1;fill-rule:evenodd;stroke:#0000ff;stroke-width:0.3;stroke-linecap:butt;stroke-linejoin:miter;stroke-opacity:1;stroke-miterlimit:4;stroke-dasharray:none"
       d="m 167.62344,201.75868 v -5.00021 c 23.67707,1.77053 32.16023,-36.99022 20.16518,-51.031 2.82563,-4.22923 0.14547,-6.5976 -3.81218,-7.60624 l 0.0393,2.71145 c 6.54091,2.02808 -1.63239,7.7643 -3.07216,2.92954 l -1.74925,1.90014 c 0.28383,3.25757 4.50295,4.58742 5.89938,3.58584 1.80992,1.52228 2.08156,3.56119 2.8081,5.72368 2.07277,6.16938 1.16875,14.30023 -1.74873,21.74854 -3.9401,10.05908 -9.98016,17.5607 -18.35547,15.33343 -0.0778,-0.0639 -0.13349,-0.0775 -0.17415,-0.0594 v -6.08386 h -5.09994 v 15.84812 z"
       id="path4549-1-6"
       inkscape:connector-curvature="0" />
    <path
       id="rect3866-3"
       style="fill:none;stroke:#0000ff;stroke-width:0.3;stroke-linecap:square;paint-order:fill markers stroke;stroke-miterlimit:4;stroke-dasharray:none;stroke-opacity:1"
       d="m 118.64691,240.26123 v 2.16067 0.83933 h 12.00028 v -0.83933 -2.16067 z" />
    <path
       id="rect3866-3-6"
       style="fill:none;stroke:#0000ff;stroke-width:0.3;stroke-linecap:square;paint-order:fill markers stroke;stroke-miterlimit:4;stroke-dasharray:none;stroke-opacity:1"
       d="m 119.89502,257.8916 v 2.16067 0.83933 h 12.00028 v -0.83933 -2.16067 z" />
    <path
       id="rect3866-3-6-7"
       style="fill:none;stroke:#0000ff;stroke-width:0.3;stroke-linecap:square;paint-order:fill markers stroke;stroke-miterlimit:4;stroke-dasharray:none;stroke-opacity:1"
       d="m 81.32342,258.60507 v 2.16067 0.83933 H 93.3237 v -0.83933 -2.16067 z" />
    <path
       id="rect3866-3-6-5"
       style="fill:none;stroke:#0000ff;stroke-width:0.3;stroke-linecap:square;paint-order:fill markers stroke;stroke-miterlimit:4;stroke-dasharray:none;stroke-opacity:1"
       d="m 82.24408,240.77901 v 2.16067 0.83933 h 12.00028 v -0.83933 -2.16067 z" />
    <circle
       style="fill:none;stroke:#0000ff;stroke-width:0.3;stroke-linecap:square;paint-order:fill markers stroke;stroke-miterlimit:4;stroke-dasharray:none;stroke-opacity:1"
       id="path835-5-2"
       cx="91.474022"
       cy="28.702835"
       r="4.0500002" />
    <rect
       style="fill:none;stroke:#000000;stroke-width:0.3;stroke-linecap:square;paint-order:fill markers stroke;stroke-miterlimit:4;stroke-dasharray:none;stroke-opacity:1"
       id="rect862-0"
       width="31.145098"
       height="1.278592"
       x="86.48481"
       y="39.632576" />
    <path
       id="rect906-1"
       style="fill:none;stroke:#0000ff;stroke-width:1.13385828;stroke-linecap:square;paint-order:fill markers stroke;stroke-miterlimit:4;stroke-dasharray:none;stroke-opacity:1"
       d="M 385.64258 -54.552734 A 16.663937 16.663937 0 0 0 369.06445 -37.888672 A 16.663937 16.663937 0 0 0 378.47656 -22.886719 L 371.04102 32.255859 L 291.24023 80.136719 L 291.24023 112.26172 L 232.91016 120.12695 A 16.663937 16.663937 0 0 0 217.9082 110.7168 A 16.663937 16.663937 0 0 0 201.24414 127.38086 A 16.663937 16.663937 0 0 0 201.24414 127.4668 A 16.663937 16.663937 0 0 0 217.9082 144.04492 A 16.663937 16.663937 0 0 0 232.91016 134.63281 L 291.24023 142.49805 L 291.24023 174.625 L 480.2168 174.625 L 480.2168 142.5 L 538.54688 134.63477 A 16.663937 16.663937 0 0 0 553.54883 144.04492 A 16.663937 16.663937 0 0 0 570.21289 127.38086 A 16.663937 16.663937 0 0 0 570.21289 127.29492 A 16.663937 16.663937 0 0 0 553.54883 110.7168 A 16.663937 16.663937 0 0 0 538.54688 120.12891 L 480.2168 112.26367 L 480.2168 80.136719 L 400.41797 32.257812 L 392.98242 -22.886719 A 16.663937 16.663937 0 0 0 402.39258 -37.888672 A 16.663937 16.663937 0 0 0 385.72852 -54.552734 A 16.663937 16.663937 0 0 0 385.64258 -54.552734 z "
       transform="scale(0.26458333)" />
    <circle
       style="fill:none;stroke:#0000ff;stroke-width:0.3;stroke-linecap:square;paint-order:fill markers stroke;stroke-miterlimit:4;stroke-dasharray:none;stroke-opacity:1"
       id="path835-5-2-6"
       cx="112.64071"
       cy="28.702835"
       r="4.0500002" />
    <path
       id="rect3866-9"
       style="fill:none;stroke:#0000ff;stroke-width:1.13385828;stroke-linecap:square;paint-order:fill markers stroke;stroke-opacity:1;stroke-miterlimit:4;stroke-dasharray:none"
       d="M 55.023438 807.63086 L 55.023438 853.63086 L 96.369141 853.63086 L 96.369141 984.29102 L 96.369141 1035.0469 L 141.72461 1035.0469 L 141.72461 984.29102 L 141.72461 853.63086 L 159.02344 853.63086 L 159.02344 807.63086 L 55.023438 807.63086 z "
       transform="scale(0.26458333)" />
    <rect
       style="fill:none;stroke:#0000ff;stroke-width:0.3;stroke-linecap:square;paint-order:fill markers stroke;stroke-opacity:1;stroke-miterlimit:4;stroke-dasharray:none"
       id="rect4060"
       width="40"
       height="40"
       x="81.681229"
       y="92.315483" />
    <path
       id="rect3866-9-9"
       style="fill:none;stroke:#0000ff;stroke-width:0.3;stroke-linecap:square;stroke-opacity:1;paint-order:fill markers stroke;stroke-miterlimit:4;stroke-dasharray:none"
       d="m 178.11733,221.13284 v 12.17083 h -10.93939 v 34.5705 13.42916 h -12.0003 v -13.42916 -34.5705 h -4.57698 v -12.17083 z" />
    <path
       style="fill:none;fill-opacity:1;fill-rule:evenodd;stroke:#0000ff;stroke-width:0.3;stroke-linecap:butt;stroke-linejoin:miter;stroke-miterlimit:4;stroke-dasharray:none;stroke-opacity:1"
       d="m 34.613251,200.85878 v -5.00021 c -23.67707,1.77053 -32.16023,-36.99022 -20.16518,-51.031 -2.82563,-4.22923 -0.14547,-6.5976 3.81218,-7.60624 l -0.0393,2.71145 c -6.54091,2.02808 1.63239,7.7643 3.07216,2.92954 l 1.74925,1.90014 c -0.28383,3.25757 -4.50295,4.58742 -5.89938,3.58584 -1.80992,1.52228 -2.08156,3.56119 -2.8081,5.72368 -2.07277,6.16938 -1.16875,14.30023 1.74873,21.74854 3.9401,10.05908 9.98016,17.5607 18.35547,15.33343 0.0778,-0.0639 0.13349,-0.0775 0.17415,-0.0594 v -6.08386 h 5.09994 v 15.84812 z"
       id="path4549-1-6-3"
       inkscape:connector-curvature="0" />
  </g>
</svg>
